<svg width="24" height="23" viewBox="0 0 24 23" fill="none" xmlns="http://www.w3.org/2000/svg">
<path d="M5.71429 0V7.58621ZM18.2857 0V7.58621ZM4.92857 11.3793H9.64286ZM19.0714 11.3793H14.3571ZM4.92857 15.931H9.64286ZM14.3571 15.931H19.0714ZM2.57143 3.7931H21.4286C21.8453 3.7931 22.245 3.95296 22.5397 4.23749C22.8344 4.52203 23 4.90795 23 5.31034V20.4828C23 20.8852 22.8344 21.2711 22.5397 21.5556C22.245 21.8401 21.8453 22 21.4286 22H2.57143C2.15466 22 1.75496 21.8401 1.46026 21.5556C1.16556 21.2711 1 20.8852 1 20.4828V5.31034C1 4.90795 1.16556 4.52203 1.46026 4.23749C1.75496 3.95296 2.15466 3.7931 2.57143 3.7931Z" fill="#F0F1FF"/>
<path d="M5.71429 0V7.58621M18.2857 0V7.58621M4.92857 11.3793H9.64286M19.0714 11.3793H14.3571M4.92857 15.931H9.64286M14.3571 15.931H19.0714M2.57143 3.7931H21.4286C21.8453 3.7931 22.245 3.95296 22.5397 4.23749C22.8344 4.52203 23 4.90795 23 5.31034V20.4828C23 20.8852 22.8344 21.2711 22.5397 21.5556C22.245 21.8401 21.8453 22 21.4286 22H2.57143C2.15466 22 1.75496 21.8401 1.46026 21.5556C1.16556 21.2711 1 20.8852 1 20.4828V5.31034C1 4.90795 1.16556 4.52203 1.46026 4.23749C1.75496 3.95296 2.15466 3.7931 2.57143 3.7931Z" stroke="#6196BC"/>
</svg>
