<!DOCTYPE svg PUBLIC "-//W3C//DTD SVG 1.1//EN" "http://www.w3.org/Graphics/SVG/1.1/DTD/svg11.dtd">
<!-- Uploaded to: SVG Repo, www.svgrepo.com, Transformed by: SVG Repo Mixer Tools -->
<svg version="1.1" id="Layer_1" xmlns="http://www.w3.org/2000/svg" xmlns:xlink="http://www.w3.org/1999/xlink" viewBox="-97.28 -97.28 706.56 706.56" xml:space="preserve" width="800px" height="800px" fill="#000000" stroke="#000000" stroke-width="0.00512">
<g id="SVGRepo_bgCarrier" stroke-width="0"/>
<g id="SVGRepo_tracerCarrier" stroke-linecap="round" stroke-linejoin="round" stroke="#CCCCCC" stroke-width="5.12"/>
<g id="SVGRepo_iconCarrier"> <g> <circle style="fill:#426a76;" cx="256" cy="256" r="256"/> <rect x="99.082" y="137.088" style="fill:#48AFCC;" width="313.856" height="266.394"/> <rect x="99.082" y="129.024" style="fill:#71C6DE;" width="313.856" height="266.394"/> <polygon style="fill:#48AFCC;" points="397.102,209.167 397.102,382.515 112.922,382.515 112.922,151.245 397.102,151.245 "/> <polygon style="fill:#FFFFFF;" points="397.102,201.283 397.102,374.63 112.922,374.63 112.922,143.36 397.102,143.36 "/> <path style="fill:#B6F0FF;" d="M126.72,154.184v207.017h257.659V154.184H126.72z M376.494,175.642h-22.702v-13.573h22.702V175.642z M228.823,246.016h23.352v23.357h-23.352V246.016z M220.938,269.368h-23.357v-23.352h23.357V269.368z M252.175,238.126h-23.352 v-23.357h23.352V238.126z M260.06,214.774h23.357v23.357H260.06V214.774z M252.175,277.253v23.357h-23.352v-23.357H252.175z M260.06,277.253h23.357v23.357H260.06V277.253z M260.06,269.368v-23.352h23.357v23.357H260.06V269.368z M291.308,246.016h23.352 v23.357h-23.352V246.016z M291.308,238.126v-23.357h23.352v23.357H291.308z M291.308,206.884v-23.357h23.352v23.357H291.308z M283.423,206.884h-23.357v-23.357h23.357V206.884z M252.175,206.884h-23.352v-23.357h23.352V206.884z M220.938,206.884h-23.357 v-23.357h23.357V206.884z M220.938,214.774v23.357h-23.357v-23.357H220.938z M189.691,238.126h-23.352v-23.357h23.352V238.126z M189.691,246.016v23.357h-23.352v-23.357H189.691z M189.691,277.253v23.357h-23.352v-23.357H189.691z M197.576,277.253h23.357 v23.357h-23.357V277.253z M220.938,308.495v23.357h-23.357v-23.357H220.938L220.938,308.495z M228.823,308.495h23.352v23.357 h-23.352V308.495z M260.06,308.495h23.357v23.357H260.06V308.495z M291.308,308.495h23.352v23.357h-23.352V308.495z M291.308,300.611v-23.357h23.352v23.357H291.308z M322.545,277.253h23.357v23.357h-23.357L322.545,277.253L322.545,277.253z M322.545,269.368v-23.352h23.357v23.357h-23.357V269.368z M322.545,238.126v-23.357h23.357v23.357H322.545z M322.545,206.884 v-23.357h23.357v23.357H322.545z M322.545,175.642v-13.573h23.357v13.573H322.545z M314.66,175.642h-23.352v-13.573h23.352V175.642 z M283.423,175.642h-23.357v-13.573h23.357V175.642z M252.175,175.642h-23.352v-13.573h23.352V175.642z M220.938,175.642h-23.357 v-13.573h23.357V175.642z M189.691,175.642h-23.352v-13.573h23.352V175.642z M189.691,183.532v23.357h-23.352v-23.357H189.691z M158.454,206.884H134.61v-23.357h23.844V206.884z M158.454,214.774v23.357H134.61v-23.357H158.454z M158.454,246.016v23.357 H134.61v-23.357H158.454z M158.454,277.253v23.357H134.61v-23.357H158.454z M158.454,308.495v23.357H134.61v-23.357H158.454 L158.454,308.495z M166.339,308.495h23.352v23.357h-23.352V308.495z M189.691,339.738v13.573h-23.352v-13.573H189.691z M197.576,339.738h23.357v13.573h-23.357V339.738z M228.823,339.738h23.352v13.573h-23.352V339.738z M260.06,339.738h23.357v13.573 H260.06V339.738z M291.308,339.738h23.352v13.573h-23.352V339.738z M322.545,339.738h23.357v13.573h-23.357L322.545,339.738 L322.545,339.738z M322.545,331.853v-23.357h23.357v23.357H322.545z M353.792,308.495h22.702v23.357h-22.702V308.495z M353.792,300.611v-23.357h22.702v23.357H353.792z M353.792,269.368v-23.352h22.702v23.357h-22.702V269.368z M353.792,238.126 v-23.357h22.702v23.357H353.792z M353.792,206.884v-23.357h22.702v23.357H353.792z M158.454,162.068v13.573H134.61v-13.573H158.454 z M134.61,339.738h23.844v13.573H134.61V339.738z M353.792,353.311v-13.573h22.702v13.573H353.792z"/> <polygon style="fill:#FC611F;" points="169.441,328.484 169.441,283.796 126.72,283.796 126.72,275.907 177.331,275.907 177.331,293.571 209.423,226.161 209.423,276.326 221.978,276.326 259.845,187.694 259.845,294.436 284.677,245.14 284.677,278.938 317.445,278.938 340.065,240.517 340.065,278.938 384.384,278.938 384.384,286.822 332.18,286.822 332.18,269.46 321.961,286.822 276.787,286.822 276.787,278.328 251.96,327.619 251.96,226.222 227.185,284.216 201.539,284.216 201.539,261.069 "/> <path style="fill:#FC611F;" d="M298.066,120.934c0-22.794-18.478-41.277-41.277-41.277c-22.794,0-41.277,18.478-41.277,41.277 h-29.542v48.384h140.063v-48.384C326.031,120.934,298.066,120.934,298.066,120.934z M207.401,152.883 c-4.342,0-7.864-3.517-7.864-7.864c0-4.342,3.523-7.864,7.864-7.864c4.342,0,7.864,3.523,7.864,7.864 C215.265,149.361,211.748,152.883,207.401,152.883z M239.171,120.934c0-9.713,7.905-17.618,17.618-17.618 c9.713,0,17.618,7.905,17.618,17.618H239.171z M305.198,152.883c-4.342,0-7.864-3.517-7.864-7.864c0-4.342,3.523-7.864,7.864-7.864 c4.342,0,7.864,3.523,7.864,7.864C313.062,149.361,309.54,152.883,305.198,152.883z"/> <path style="fill:#E34E10;" d="M298.066,120.934c0-22.794-18.478-41.277-41.277-41.277L256,79.739v23.66l0.788-0.082 c9.713,0,17.618,7.905,17.618,17.618H256v48.384h70.031v-48.384C326.031,120.934,298.066,120.934,298.066,120.934z M305.198,152.883c-4.342,0-7.864-3.517-7.864-7.864c0-4.342,3.523-7.864,7.864-7.864c4.342,0,7.864,3.523,7.864,7.864 C313.062,149.361,309.54,152.883,305.198,152.883z"/> </g> </g>
</svg>