<svg width="25" height="25" viewBox="0 0 25 25" fill="none" xmlns="http://www.w3.org/2000/svg">
<path d="M5.729 15.625C5.729 15.4869 5.78388 15.3544 5.88155 15.2567C5.97923 15.159 6.1117 15.1042 6.24984 15.1042H13.5415C13.6796 15.1042 13.8121 15.159 13.9098 15.2567C14.0075 15.3544 14.0623 15.4869 14.0623 15.625C14.0623 15.7631 14.0075 15.8956 13.9098 15.9933C13.8121 16.091 13.6796 16.1458 13.5415 16.1458H6.24984C6.1117 16.1458 5.97923 16.091 5.88155 15.9933C5.78388 15.8956 5.729 15.7631 5.729 15.625ZM6.24984 17.7083C6.1117 17.7083 5.97923 17.7632 5.88155 17.8609C5.78388 17.9586 5.729 18.091 5.729 18.2292C5.729 18.3673 5.78388 18.4998 5.88155 18.5975C5.97923 18.6951 6.1117 18.75 6.24984 18.75H13.5415C13.6796 18.75 13.8121 18.6951 13.9098 18.5975C14.0075 18.4998 14.0623 18.3673 14.0623 18.2292C14.0623 18.091 14.0075 17.9586 13.9098 17.8609C13.8121 17.7632 13.6796 17.7083 13.5415 17.7083H6.24984ZM7.2915 10.9375V9.375H8.33317V10.9375H9.89567V11.9792H8.33317V13.5417H7.2915V11.9792H5.729V10.9375H7.2915Z" fill="#9E40A6"/>
<path fill-rule="evenodd" clip-rule="evenodd" d="M7.8125 3.125C7.3981 3.125 7.00067 3.28962 6.70765 3.58265C6.41462 3.87567 6.25 4.2731 6.25 4.6875H4.6875C4.2731 4.6875 3.87567 4.85212 3.58265 5.14515C3.28962 5.43817 3.125 5.8356 3.125 6.25V20.3125C3.125 20.7269 3.28962 21.1243 3.58265 21.4174C3.87567 21.7104 4.2731 21.875 4.6875 21.875H15.1042C15.5186 21.875 15.916 21.7104 16.209 21.4174C16.502 21.1243 16.6667 20.7269 16.6667 20.3125V6.25C16.6667 5.8356 16.502 5.43817 16.209 5.14515C15.916 4.85212 15.5186 4.6875 15.1042 4.6875H13.5417C13.5417 4.2731 13.377 3.87567 13.084 3.58265C12.791 3.28962 12.3936 3.125 11.9792 3.125H7.8125ZM11.9792 6.25C12.1173 6.25 12.2498 6.19513 12.3475 6.09745C12.4451 5.99978 12.5 5.8673 12.5 5.72917V4.6875C12.5 4.54937 12.4451 4.41689 12.3475 4.31922C12.2498 4.22154 12.1173 4.16667 11.9792 4.16667H7.8125C7.67437 4.16667 7.54189 4.22154 7.44422 4.31922C7.34654 4.41689 7.29167 4.54937 7.29167 4.6875V5.72917C7.29167 5.8673 7.34654 5.99978 7.44422 6.09745C7.54189 6.19513 7.67437 6.25 7.8125 6.25H11.9792ZM6.25 5.72917C6.25 6.14357 6.41462 6.541 6.70765 6.83402C7.00067 7.12705 7.3981 7.29167 7.8125 7.29167H11.9792C12.3936 7.29167 12.791 7.12705 13.084 6.83402C13.377 6.541 13.5417 6.14357 13.5417 5.72917H15.1042C15.2423 5.72917 15.3748 5.78404 15.4725 5.88172C15.5701 5.97939 15.625 6.11187 15.625 6.25V20.3125C15.625 20.4506 15.5701 20.5831 15.4725 20.6808C15.3748 20.7785 15.2423 20.8333 15.1042 20.8333H4.6875C4.54937 20.8333 4.41689 20.7785 4.31922 20.6808C4.22154 20.5831 4.16667 20.4506 4.16667 20.3125V6.25C4.16667 6.11187 4.22154 5.97939 4.31922 5.88172C4.41689 5.78404 4.54937 5.72917 4.6875 5.72917H6.25ZM18.75 8.85417C18.75 8.43977 18.9146 8.04234 19.2076 7.74931C19.5007 7.45629 19.8981 7.29167 20.3125 7.29167C20.7269 7.29167 21.1243 7.45629 21.4174 7.74931C21.7104 8.04234 21.875 8.43977 21.875 8.85417V19.4286L20.3125 21.7724L18.75 19.4286V8.85417ZM20.3125 8.33333C20.1744 8.33333 20.0419 8.38821 19.9442 8.48588C19.8465 8.58356 19.7917 8.71603 19.7917 8.85417V9.89583H20.8333V8.85417C20.8333 8.71603 20.7785 8.58356 20.6808 8.48588C20.5831 8.38821 20.4506 8.33333 20.3125 8.33333ZM20.3125 19.8943L20.8333 19.113V10.9375H19.7917V19.113L20.3125 19.8943Z" fill="#9E40A6"/>
</svg>
