<!DOCTYPE svg PUBLIC "-//W3C//DTD SVG 1.1//EN" "http://www.w3.org/Graphics/SVG/1.1/DTD/svg11.dtd">
<!-- Uploaded to: SVG Repo, www.svgrepo.com, Transformed by: SVG Repo Mixer Tools -->
<svg xmlns:dc="http://purl.org/dc/elements/1.1/" xmlns:cc="http://creativecommons.org/ns#" xmlns:rdf="http://www.w3.org/1999/02/22-rdf-syntax-ns#" xmlns:svg="http://www.w3.org/2000/svg" xmlns="http://www.w3.org/2000/svg" xmlns:sodipodi="http://sodipodi.sourceforge.net/DTD/sodipodi-0.dtd" xmlns:inkscape="http://www.inkscape.org/namespaces/inkscape" width="800px" height="800px" viewBox="0 0 30 30" version="1.1" id="svg822" inkscape:version="0.92.4 (f8dce91, 2019-08-02)" sodipodi:docname="developer-mode.svg" fill="#000000">
<g id="SVGRepo_bgCarrier" stroke-width="0"/>
<g id="SVGRepo_tracerCarrier" stroke-linecap="round" stroke-linejoin="round"/>
<g id="SVGRepo_iconCarrier"> <defs id="defs816"/> <sodipodi:namedview id="base" pagecolor="#ffffff" bordercolor="#666666" borderopacity="1.0" inkscape:pageopacity="0.0" inkscape:pageshadow="2" inkscape:zoom="17.833333" inkscape:cx="7.4859812" inkscape:cy="15" inkscape:document-units="px" inkscape:current-layer="layer1" showgrid="true" units="px" inkscape:window-width="1366" inkscape:window-height="713" inkscape:window-x="0" inkscape:window-y="0" inkscape:window-maximized="1"> <inkscape:grid type="xygrid" id="grid816"/> </sodipodi:namedview> <metadata id="metadata819"> <rdf:rdf> <cc:work rdf:about=""> <dc:format>image/svg+xml</dc:format> <dc:type rdf:resource="http://purl.org/dc/dcmitype/StillImage"/> <dc:title/> </cc:work> </rdf:rdf> </metadata> <g inkscape:label="Layer 1" inkscape:groupmode="layer" id="layer1" transform="translate(0,-289.0625)"> <path style="opacity:1;fill:#0d77e7;fill-opacity:1;stroke:none;stroke-width:1.99999988;stroke-miterlimit:4;stroke-dasharray:none;stroke-opacity:0.7716895" d="M 15,3 A 12,12 0 0 0 3,15 12,12 0 0 0 15,27 12,12 0 0 0 27,15 12,12 0 0 0 15,3 Z m 1.800781,6 1.478516,0.6914062 -0.472656,0.9804688 6.048828,3.734375 v 1.380859 L 19.126953,18.720703 18.267578,17.412109 22.193359,15.097656 17.115234,12.126953 12.835938,21 11.345703,20.320312 11.830078,19.314453 6.1445312,15.787109 v -1.36914 l 4.7402348,-2.945313 0.847656,1.320313 -3.9394532,2.304687 4.7285152,2.775391 z" transform="translate(0,289.0625)" id="path1065" inkscape:connector-curvature="0"/> <g aria-label="&lt;/&gt;" style="font-style:normal;font-weight:normal;font-size:12.12121201px;line-height:1.25;font-family:sans-serif;letter-spacing:0px;word-spacing:0px;fill:#0d77e7;fill-opacity:1;stroke:none;stroke-width:0.99999994" id="text1069" transform="translate(-1.0255685,2e-5)"/> </g> </g>
</svg>