<svg width="24" height="24" viewBox="0 0 24 24" fill="none" xmlns="http://www.w3.org/2000/svg">
<path d="M13.2001 18H15.6001V20.4H13.2001V18ZM18.0001 18H20.4001V20.4H18.0001V18ZM13.2001 13.2H15.6001V15.6H13.2001V13.2ZM15.6001 15.6H18.0001V18H15.6001V15.6ZM18.0001 13.2H20.4001V15.6H18.0001V13.2ZM3.6001 5.99998C3.6001 5.36346 3.85295 4.75301 4.30304 4.30292C4.75313 3.85283 5.36358 3.59998 6.0001 3.59998H8.4001C9.03662 3.59998 9.64707 3.85283 10.0972 4.30292C10.5472 4.75301 10.8001 5.36346 10.8001 5.99998V8.39998C10.8001 9.03649 10.5472 9.64694 10.0972 10.097C9.64707 10.5471 9.03662 10.8 8.4001 10.8H6.0001C5.36358 10.8 4.75313 10.5471 4.30304 10.097C3.85295 9.64694 3.6001 9.03649 3.6001 8.39998V5.99998ZM6.0001 4.79998C5.68184 4.79998 5.37661 4.9264 5.15157 5.15145C4.92653 5.37649 4.8001 5.68172 4.8001 5.99998V8.39998C4.8001 8.71824 4.92653 9.02346 5.15157 9.2485C5.37661 9.47355 5.68184 9.59998 6.0001 9.59998H8.4001C8.71836 9.59998 9.02358 9.47355 9.24863 9.2485C9.47367 9.02346 9.6001 8.71824 9.6001 8.39998V5.99998C9.6001 5.68172 9.47367 5.37649 9.24863 5.15145C9.02358 4.9264 8.71836 4.79998 8.4001 4.79998H6.0001ZM6.0001 5.99998H8.4001V8.39998H6.0001V5.99998ZM3.6001 15.6C3.6001 14.9635 3.85295 14.353 4.30304 13.9029C4.75313 13.4528 5.36358 13.2 6.0001 13.2H8.4001C9.03662 13.2 9.64707 13.4528 10.0972 13.9029C10.5472 14.353 10.8001 14.9635 10.8001 15.6V18C10.8001 18.6365 10.5472 19.2469 10.0972 19.697C9.64707 20.1471 9.03662 20.4 8.4001 20.4H6.0001C5.36358 20.4 4.75313 20.1471 4.30304 19.697C3.85295 19.2469 3.6001 18.6365 3.6001 18V15.6ZM6.0001 14.4C5.68184 14.4 5.37661 14.5264 5.15157 14.7514C4.92653 14.9765 4.8001 15.2817 4.8001 15.6V18C4.8001 18.3182 4.92653 18.6235 5.15157 18.8485C5.37661 19.0735 5.68184 19.2 6.0001 19.2H8.4001C8.71836 19.2 9.02358 19.0735 9.24863 18.8485C9.47367 18.6235 9.6001 18.3182 9.6001 18V15.6C9.6001 15.2817 9.47367 14.9765 9.24863 14.7514C9.02358 14.5264 8.71836 14.4 8.4001 14.4H6.0001ZM6.0001 15.6H8.4001V18H6.0001V15.6ZM13.2001 5.99998C13.2001 5.36346 13.453 4.75301 13.903 4.30292C14.3531 3.85283 14.9636 3.59998 15.6001 3.59998H18.0001C18.6366 3.59998 19.2471 3.85283 19.6972 4.30292C20.1472 4.75301 20.4001 5.36346 20.4001 5.99998V8.39998C20.4001 9.03649 20.1472 9.64694 19.6972 10.097C19.2471 10.5471 18.6366 10.8 18.0001 10.8H15.6001C14.9636 10.8 14.3531 10.5471 13.903 10.097C13.453 9.64694 13.2001 9.03649 13.2001 8.39998V5.99998ZM15.6001 4.79998C15.2818 4.79998 14.9766 4.9264 14.7516 5.15145C14.5265 5.37649 14.4001 5.68172 14.4001 5.99998V8.39998C14.4001 8.71824 14.5265 9.02346 14.7516 9.2485C14.9766 9.47355 15.2818 9.59998 15.6001 9.59998H18.0001C18.3184 9.59998 18.6236 9.47355 18.8486 9.2485C19.0737 9.02346 19.2001 8.71824 19.2001 8.39998V5.99998C19.2001 5.68172 19.0737 5.37649 18.8486 5.15145C18.6236 4.9264 18.3184 4.79998 18.0001 4.79998H15.6001ZM15.6001 5.99998H18.0001V8.39998H15.6001V5.99998Z" fill="#6196BC"/>
</svg>
